<?xml version="1.0" standalone="no"?>
<!DOCTYPE svg PUBLIC "-//W3C//DTD SVG 20010904//EN"
 "http://www.w3.org/TR/2001/REC-SVG-20010904/DTD/svg10.dtd">
<svg version="1.0" xmlns="http://www.w3.org/2000/svg"
 width="563.000000pt" height="611.000000pt" viewBox="0 0 563.000000 611.000000"
 preserveAspectRatio="xMidYMid meet">
<metadata>
Created by potrace 1.12, written by Peter Selinger 2001-2015
</metadata>
<g transform="translate(0.000000,611.000000) scale(0.100000,-0.100000)"
fill="#000000" stroke="none">
<path d="M712 5943 c-12 -82 -105 -688 -207 -1348 -206 -1334 -197 -1274 -260
-1690 -45 -297 -89 -580 -100 -642 l-6 -33 136 0 c74 0 135 3 135 8 0 11 100
716 103 725 3 9 546 11 555 2 4 -4 111 -699 112 -727 0 -13 310 -10 310 3 0 6
-58 389 -130 852 -71 463 -176 1150 -234 1527 -58 377 -110 712 -116 745 -11
62 -110 713 -110 721 0 2 -37 4 -83 4 l-83 0 -22 -147z m328 -2735 c0 -5 -110
-8 -245 -8 -135 0 -245 3 -245 8 0 4 9 71 20 148 62 441 116 831 160 1149 28
198 53 376 57 395 4 24 44 -230 129 -825 68 -473 123 -863 124 -867z"/>
<path d="M1712 4164 l3 -1929 158 -3 157 -3 0 678 1 678 88 42 c314 150 565
484 666 886 77 310 67 734 -25 1008 -97 290 -276 468 -545 540 -66 18 -117 23
-293 26 l-212 5 2 -1928z m495 1661 c144 -65 243 -239 289 -505 22 -131 27
-481 9 -621 -36 -282 -127 -513 -271 -691 -49 -60 -174 -167 -196 -168 -5 0
-8 456 -8 1013 l0 1014 62 -9 c34 -4 86 -19 115 -33z"/>
<path d="M3137 4950 l3 -1140 -65 0 -65 0 0 -115 0 -115 65 0 65 0 0 -657 c0
-362 0 -666 0 -675 0 -17 30 -18 485 -18 l485 0 0 115 0 115 -330 0 -330 0 0
560 0 560 255 0 255 0 0 115 0 115 -255 0 -255 0 2 1026 3 1027 328 -2 327 -2
0 115 0 116 -487 0 -488 0 2 -1140z"/>
<path d="M4230 6081 c0 -6 18 -88 41 -183 22 -95 73 -315 114 -488 41 -173
121 -517 180 -765 l105 -450 -116 -495 c-146 -624 -221 -947 -285 -1220 -28
-118 -53 -223 -55 -232 -5 -17 6 -18 134 -18 l140 0 31 133 c35 149 144 622
258 1112 42 182 79 333 83 337 6 8 17 -37 231 -989 l134 -593 153 0 c83 0 152
3 152 8 0 6 -92 398 -251 1067 -28 116 -86 363 -130 550 l-80 339 21 91 c11
49 77 326 146 615 68 289 159 674 202 855 l79 330 -135 3 c-74 1 -137 0 -139
-2 -5 -4 -75 -303 -286 -1214 -45 -195 -75 -306 -79 -295 -4 10 -28 108 -52
218 -60 265 -133 588 -196 870 -29 127 -62 273 -74 325 l-21 95 -152 3 c-97 2
-153 -1 -153 -7z"/>
<path d="M5310 1555 c-60 -19 -113 -65 -141 -122 -19 -39 -23 -64 -23 -133 1
-134 36 -227 167 -445 122 -201 172 -330 180 -460 13 -222 -103 -339 -281
-283 -18 5 -34 8 -35 6 -2 -1 -10 -20 -19 -40 l-17 -37 47 -18 c30 -12 73 -18
122 -18 67 0 82 4 140 36 122 67 174 169 172 342 -2 176 -43 289 -209 568
-134 226 -168 345 -125 441 11 26 31 54 45 63 29 19 115 22 145 6 18 -9 23 -6
41 23 12 18 21 38 21 44 0 15 -95 42 -144 41 -23 0 -61 -7 -86 -14z"/>
<path d="M0 1511 l0 -49 88 1 87 0 3 -726 2 -727 65 0 65 0 0 728 0 727 87 0
88 0 3 48 3 47 -245 0 -246 0 0 -49z"/>
<path d="M768 1103 l-3 -458 -27 2 c-27 2 -28 0 -28 -47 0 -49 1 -50 30 -50
l30 0 0 -270 0 -270 65 0 65 0 0 270 0 270 115 0 115 0 0 -270 0 -270 65 0 65
0 0 775 0 775 -65 0 -65 0 -2 -457 -3 -457 -105 1 c-58 1 -108 2 -112 2 -5 1
-8 206 -8 456 l0 455 -65 0 -65 0 -2 -457z"/>
<path d="M1620 1099 c0 -274 -4 -458 -9 -455 -23 15 -41 -7 -41 -50 0 -40 2
-44 25 -44 l25 0 0 -270 0 -270 198 2 197 3 -1 35 c-1 19 -2 40 -3 46 -1 7
-43 9 -131 6 l-130 -4 0 226 0 226 99 0 c77 0 100 3 104 14 6 15 0 63 -10 79
-3 5 -46 7 -97 6 l-91 -3 -3 407 -2 407 97 1 c134 1 160 3 168 11 4 4 4 25 0
47 l-7 41 -194 0 -194 0 0 -461z"/>
<path d="M2490 1548 c0 -6 -52 -348 -115 -758 -63 -410 -115 -754 -115 -764 0
-14 8 -17 52 -14 l53 3 20 145 20 145 111 3 110 3 23 -151 23 -150 64 0 64 0
-6 28 c-2 15 -54 349 -114 742 -60 393 -112 730 -115 748 -5 29 -9 32 -40 32
-20 0 -35 -5 -35 -12z m75 -798 c25 -173 45 -322 45 -332 0 -16 -10 -18 -95
-18 -52 0 -95 1 -95 3 0 1 15 110 34 242 19 132 40 282 47 333 6 51 14 91 16
89 2 -3 24 -145 48 -317z"/>
<path d="M2970 1512 l0 -48 83 -2 c45 0 85 -1 90 -1 4 -1 7 -327 7 -726 l0
-726 60 3 60 3 1 723 0 722 27 1 c15 1 55 1 90 1 34 0 65 5 68 10 3 5 3 27 -1
48 l-7 40 -239 0 -239 0 0 -48z"/>
<path d="M3740 786 l0 -776 65 0 65 0 0 273 1 272 35 -55 c82 -129 129 -254
140 -379 10 -115 7 -111 71 -111 l56 0 -6 82 c-11 148 -74 323 -164 455 l-36
52 63 67 c109 117 160 258 160 444 0 175 -42 294 -128 370 -57 51 -117 71
-229 77 l-93 6 0 -777z m214 654 c69 -42 106 -157 106 -325 0 -127 -17 -220
-56 -301 -27 -58 -82 -127 -116 -145 -17 -9 -18 5 -18 391 l0 400 26 0 c15 0
41 -9 58 -20z"/>
<path d="M4500 1099 c0 -274 -4 -458 -9 -455 -23 15 -41 -7 -41 -50 0 -40 2
-44 25 -44 l25 0 0 -270 0 -270 198 2 197 3 -1 35 c-1 19 -2 40 -3 45 -1 7
-49 10 -128 10 l-128 0 -3 222 -2 223 100 0 100 0 0 51 0 50 -97 -2 -98 -2 -3
407 c-2 382 -1 406 15 407 10 0 69 1 131 1 62 0 115 4 118 9 3 6 3 28 -1 49
l-7 40 -194 0 -194 0 0 -461z"/>
</g>
</svg>
