<?xml version="1.0" standalone="no"?>
<!DOCTYPE svg PUBLIC "-//W3C//DTD SVG 20010904//EN"
 "http://www.w3.org/TR/2001/REC-SVG-20010904/DTD/svg10.dtd">
<svg version="1.0" xmlns="http://www.w3.org/2000/svg"
 width="605.000000pt" height="1673.000000pt" viewBox="0 0 605.000000 1673.000000"
 preserveAspectRatio="xMidYMid meet">
<metadata>
Created by potrace 1.12, written by Peter Selinger 2001-2015
</metadata>
<g transform="translate(0.000000,1673.000000) scale(0.100000,-0.100000)"
fill="#000000" stroke="none">
<path d="M2 11678 l-2 -5058 3025 0 3025 0 0 95 0 95 -2361 0 -2361 0 7 28 c3
15 94 344 201 732 107 388 231 833 274 990 43 157 250 906 460 1665 209 759
397 1439 417 1510 19 72 38 133 42 138 4 4 13 -23 19 -60 7 -38 21 -115 32
-173 149 -795 420 -2275 420 -2289 0 -11 -259 -435 -577 -943 -317 -508 -585
-939 -596 -958 l-20 -35 40 40 c23 22 313 320 646 663 333 343 609 624 614
624 8 1 22 -73 234 -1219 68 -369 125 -670 126 -669 2 2 -25 468 -42 706 -2
41 -7 113 -10 160 -3 47 -8 119 -11 160 -19 287 -64 1032 -64 1067 l0 43 1254
1287 1255 1288 0 1164 1 1164 -1245 -1992 c-684 -1096 -1261 -2019 -1281
-2052 -20 -33 -37 -59 -39 -57 -1 2 -5 57 -9 123 -4 66 -9 149 -11 185 -3 36
-10 139 -15 230 -14 224 -29 459 -35 553 -3 42 -7 112 -10 155 -2 42 -7 113
-10 157 -9 139 -24 373 -50 793 -13 224 -27 436 -30 472 -8 116 -38 593 -51
820 -3 58 -7 115 -9 127 -2 12 -7 89 -11 171 l-7 148 61 220 c34 120 219 791
412 1489 193 699 353 1276 355 1283 3 9 -91 12 -453 12 l-457 0 -28 -157 c-16
-87 -34 -185 -42 -218 l-13 -60 -2 50 c-1 28 -3 57 -5 65 -1 9 -6 81 -10 160
-4 80 -9 148 -12 153 -2 4 -274 7 -604 7 l-601 0 6 -27 c3 -16 22 -113 41
-218 74 -406 138 -756 259 -1410 70 -374 176 -947 236 -1273 61 -326 110 -606
110 -622 0 -29 -60 -358 -471 -2560 -272 -1461 -429 -2307 -594 -3195 -58
-313 -108 -580 -110 -592 l-5 -23 -650 0 -650 0 -3 4963 -2 4962 -3 -5057z"/>
<path d="M791 5027 c-90 -584 -221 -1438 -292 -1897 -70 -459 -131 -850 -134
-867 l-6 -33 136 0 c74 0 135 3 135 8 0 12 100 716 103 726 3 8 547 9 556 1 3
-4 110 -703 111 -727 0 -13 310 -10 310 3 0 10 -132 868 -465 3032 -69 444
-125 810 -125 812 0 3 -37 5 -82 5 l-83 0 -164 -1063z m344 -947 c64 -448 118
-830 121 -847 l6 -33 -246 0 c-135 0 -246 4 -246 8 0 4 13 102 29 217 29 202
77 546 162 1155 42 300 51 354 56 330 1 -8 55 -382 118 -830z"/>
<path d="M1932 4164 l3 -1929 158 -3 157 -3 0 678 1 678 88 42 c246 117 458
351 584 643 100 234 139 454 132 750 -14 587 -213 925 -615 1041 -63 18 -110
22 -293 26 l-217 5 2 -1928z m495 1661 c74 -33 151 -114 196 -204 73 -147 105
-307 114 -571 14 -438 -77 -781 -274 -1030 -54 -69 -181 -179 -205 -180 -5 0
-8 456 -8 1013 l0 1014 62 -9 c34 -4 86 -19 115 -33z"/>
<path d="M3359 4968 c-1 -618 -2 -1131 -2 -1140 0 -15 -9 -18 -63 -18 l-64 0
0 -115 0 -115 64 0 65 0 1 -672 0 -673 485 -3 485 -2 0 115 0 115 -330 0 -330
0 0 560 0 560 255 0 255 0 0 115 0 115 -255 0 -255 0 0 1025 0 1025 330 0 330
0 0 115 0 115 -485 0 -485 0 -1 -1122z"/>
<path d="M4450 6081 c0 -6 99 -432 220 -948 l220 -938 -114 -490 c-64 -269
-158 -674 -211 -900 -114 -489 -125 -535 -131 -557 -5 -17 6 -18 134 -18 137
0 140 1 145 22 3 13 85 365 182 783 97 418 179 769 182 780 5 14 10 3 19 -40
7 -33 38 -168 68 -300 30 -132 105 -466 168 -742 l113 -503 152 0 c84 0 153 3
153 8 0 4 -88 378 -195 832 -108 454 -211 893 -231 976 l-36 152 147 618 c81
341 182 765 225 944 l77 325 -135 3 c-79 1 -138 -1 -141 -7 -3 -5 -85 -350
-181 -765 -109 -470 -178 -749 -182 -739 -4 10 -30 119 -58 243 -71 318 -130
576 -213 945 l-72 320 -153 3 c-96 2 -152 -1 -152 -7z"/>
<path d="M5537 1556 c-62 -17 -116 -62 -147 -121 -20 -40 -24 -62 -24 -134 1
-138 37 -233 181 -472 133 -220 168 -324 161 -483 -3 -72 -9 -111 -22 -136
-51 -99 -126 -132 -233 -104 -31 8 -56 13 -57 12 -1 -2 -9 -20 -18 -40 l-17
-37 47 -18 c30 -12 73 -18 122 -18 67 0 82 4 140 36 121 66 170 162 171 335 1
184 -33 280 -196 554 -116 195 -155 291 -155 379 0 57 30 124 64 146 30 20
112 23 144 6 18 -9 23 -7 41 23 12 18 21 38 21 44 0 30 -150 49 -223 28z"/>
<path d="M220 1510 l0 -50 90 0 90 0 0 -725 0 -725 65 0 65 0 0 728 0 727 88
0 87 0 3 48 3 47 -245 0 -246 0 0 -50z"/>
<path d="M988 1103 l-3 -458 -27 1 c-27 0 -28 -2 -28 -48 0 -47 1 -48 30 -48
l30 0 0 -270 0 -270 65 0 65 0 0 270 0 270 115 0 115 0 0 -270 0 -270 65 0 65
0 0 775 0 775 -65 0 -65 0 -2 -457 -3 -458 -32 1 c-18 1 -69 2 -113 3 l-80 1
0 455 0 455 -65 0 -65 0 -2 -457z"/>
<path d="M1840 1102 l0 -459 -22 1 c-20 1 -23 -5 -26 -46 -3 -46 -2 -48 22
-48 l26 0 0 -270 0 -270 198 2 197 3 0 45 0 45 -132 -3 -133 -4 0 226 0 226
100 0 c55 0 101 3 101 8 7 35 4 78 -5 85 -6 4 -51 7 -101 6 l-90 -2 -3 407 -2
406 97 1 c91 2 110 3 154 7 15 2 16 9 11 75 -2 16 -19 17 -197 17 l-195 0 0
-458z"/>
<path d="M2710 1549 c0 -6 -52 -347 -115 -758 -63 -410 -115 -754 -115 -764 0
-15 8 -18 52 -15 l53 3 20 145 20 145 113 3 c86 2 112 0 112 -10 0 -7 9 -71
20 -143 11 -72 20 -133 20 -137 0 -5 29 -8 65 -8 l65 0 -6 28 c-2 15 -54 349
-114 742 -60 393 -112 730 -115 748 -5 29 -9 32 -40 32 -19 0 -35 -5 -35 -11z
m75 -800 c25 -172 45 -321 45 -331 0 -16 -11 -18 -95 -18 -52 0 -95 3 -95 8 0
4 6 48 14 97 8 50 29 197 47 328 17 130 34 236 36 234 2 -3 24 -145 48 -318z"/>
<path d="M3190 1510 l0 -50 90 0 90 0 0 -725 0 -725 60 0 c41 0 60 4 60 13 0
6 0 333 0 725 l0 712 57 1 c54 2 72 3 114 7 15 2 16 9 11 75 -2 16 -21 17
-242 17 l-240 0 0 -50z"/>
<path d="M3960 786 l0 -776 65 0 65 0 0 273 0 272 42 -65 c80 -126 126 -263
142 -425 3 -27 5 -51 5 -52 1 -2 26 -3 57 -3 l57 0 -6 82 c-11 147 -69 311
-158 446 l-41 62 60 65 c110 117 162 260 162 445 0 175 -42 294 -128 370 -57
51 -117 71 -229 77 l-93 6 0 -777z m221 651 c62 -41 99 -161 99 -322 0 -178
-39 -309 -116 -394 -79 -89 -74 -113 -74 343 l0 404 33 -8 c18 -4 44 -14 58
-23z"/>
<path d="M4720 1102 l0 -459 -22 1 c-20 1 -23 -5 -26 -46 -3 -46 -2 -48 22
-48 l26 0 0 -270 0 -270 198 2 197 3 0 45 0 45 -130 0 -130 0 -3 222 -2 223
100 0 100 0 0 51 0 50 -97 -2 -98 -2 -3 409 -2 409 112 -2 c144 -2 156 1 153
35 -5 68 14 62 -200 62 l-195 0 0 -458z"/>
</g>
</svg>
