<?xml version="1.0" standalone="no"?>
<!DOCTYPE svg PUBLIC "-//W3C//DTD SVG 20010904//EN"
 "http://www.w3.org/TR/2001/REC-SVG-20010904/DTD/svg10.dtd">
<svg version="1.0" xmlns="http://www.w3.org/2000/svg"
 width="543.000000pt" height="389.000000pt" viewBox="0 0 543.000000 389.000000"
 preserveAspectRatio="xMidYMid meet">
<metadata>
Created by potrace 1.12, written by Peter Selinger 2001-2015
</metadata>
<g transform="translate(0.000000,389.000000) scale(0.100000,-0.100000)"
fill="#000000" stroke="none">
<path d="M592 3723 c-12 -82 -69 -454 -127 -828 -58 -374 -121 -781 -139 -905
-96 -626 -297 -1928 -302 -1952 l-6 -28 136 0 c75 0 136 3 136 8 0 11 100 716
103 725 3 9 546 12 555 3 4 -5 110 -696 112 -728 0 -14 310 -10 310 3 0 7 -50
334 -111 728 -60 394 -116 757 -124 806 -7 50 -90 589 -184 1198 -94 609 -171
1110 -171 1112 0 3 -37 5 -83 5 l-83 0 -22 -147z m328 -2735 c0 -5 -110 -8
-245 -8 -135 0 -245 4 -245 8 0 4 13 102 29 217 17 116 51 359 76 540 43 304
134 953 136 965 1 5 248 -1707 249 -1722z"/>
<path d="M1590 1941 l0 -1931 160 0 160 0 0 678 1 677 88 42 c324 154 579 504
677 928 66 287 50 709 -36 966 -76 228 -205 389 -383 478 -137 69 -210 83
-454 88 l-213 5 0 -1931z m497 1664 c74 -33 151 -114 196 -204 75 -149 106
-309 114 -581 13 -442 -80 -781 -283 -1032 -49 -60 -174 -167 -196 -168 -5 0
-8 456 -8 1013 l0 1014 62 -9 c34 -4 86 -19 115 -33z"/>
<path d="M3020 3848 c0 -13 0 -526 0 -1140 l-1 -1118 -64 0 -65 0 0 -115 0
-115 63 0 62 0 1 -42 c0 -24 1 -328 2 -675 l2 -633 485 0 485 0 0 115 0 115
-330 0 -330 0 0 560 0 560 255 0 255 0 0 115 0 115 -255 0 -255 0 2 1025 3
1026 328 0 327 1 0 114 0 114 -485 0 -485 0 0 -22z"/>
<path d="M4110 3861 c0 -9 32 -147 316 -1356 l125 -530 -97 -410 c-99 -423
-229 -977 -290 -1240 -61 -259 -65 -280 -70 -297 -5 -17 6 -18 134 -18 l140 0
21 87 c11 49 56 246 101 438 44 193 98 424 120 515 21 91 57 246 80 345 23 99
44 189 47 200 4 12 17 -27 34 -105 16 -69 85 -375 154 -680 69 -305 138 -610
153 -678 l26 -122 153 0 c84 0 153 3 153 8 0 4 -47 207 -105 452 -58 245 -123
519 -145 610 -21 91 -78 329 -125 530 -79 333 -86 369 -76 410 5 25 35 149 65
275 141 592 310 1304 340 1433 l33 142 -138 0 c-122 0 -138 -2 -143 -17 -3
-10 -21 -88 -40 -173 -56 -242 -230 -995 -285 -1225 -18 -76 -30 -112 -34
-100 -6 19 -35 146 -253 1115 -46 206 -86 381 -89 388 -5 15 -305 18 -305 3z"/>
</g>
</svg>
