<?xml version="1.0" standalone="no"?>
<!DOCTYPE svg PUBLIC "-//W3C//DTD SVG 20010904//EN"
 "http://www.w3.org/TR/2001/REC-SVG-20010904/DTD/svg10.dtd">
<svg version="1.0" xmlns="http://www.w3.org/2000/svg"
 width="602.000000pt" height="982.000000pt" viewBox="0 0 602.000000 982.000000"
 preserveAspectRatio="xMidYMid meet">
<metadata>
Created by potrace 1.12, written by Peter Selinger 2001-2015
</metadata>
<g transform="translate(0.000000,982.000000) scale(0.100000,-0.100000)"
fill="#000000" stroke="none">
<path d="M1820 9806 c0 -16 91 -517 230 -1261 50 -269 132 -710 181 -980 132
-714 165 -892 199 -1070 35 -189 36 -194 11 -327 -11 -57 -45 -240 -76 -408
-30 -168 -60 -325 -65 -350 -5 -25 -35 -182 -65 -350 -31 -168 -92 -494 -135
-725 -43 -231 -104 -557 -135 -725 -64 -349 -133 -715 -175 -940 -30 -160 -76
-407 -225 -1210 -47 -256 -108 -584 -136 -730 -27 -146 -58 -312 -69 -370 -11
-58 -30 -162 -43 -232 -38 -200 -10 -159 57 84 33 117 106 382 163 588 57 206
130 472 163 590 32 118 100 363 150 543 102 369 393 1421 650 2352 94 341 176
638 182 660 6 22 14 43 18 48 3 4 19 -62 34 -145 16 -84 61 -331 101 -548 41
-217 85 -458 99 -535 45 -246 205 -1107 221 -1190 8 -44 15 -90 15 -102 0 -17
-290 -496 -425 -703 -49 -75 -730 -1167 -748 -1200 -12 -22 32 18 114 103 785
808 1165 1194 1170 1189 4 -4 26 -110 49 -237 23 -126 51 -277 61 -335 11 -58
26 -139 34 -180 192 -1051 221 -1198 210 -1065 -3 28 -9 129 -15 225 -18 303
-21 353 -25 415 -2 33 -7 105 -10 160 -3 55 -7 127 -10 160 -8 104 -37 567
-55 870 -6 99 -12 191 -14 203 -3 20 207 241 1255 1315 l1258 1292 0 1164 1
1164 -1196 -1914 c-658 -1053 -1234 -1976 -1281 -2052 -47 -76 -87 -137 -88
-135 -1 2 -5 57 -9 123 -4 66 -9 149 -11 185 -3 36 -7 99 -10 140 -3 41 -7
116 -10 165 -6 112 -24 388 -30 475 -5 77 -12 191 -20 315 -10 177 -23 372
-30 475 -3 36 -14 211 -25 390 -23 376 -29 472 -35 555 -3 33 -9 143 -15 245
-6 102 -12 205 -15 230 -2 25 -7 104 -11 175 -3 72 -8 137 -9 145 -2 8 -6 83
-10 166 -7 134 -5 158 13 224 103 373 474 1715 709 2565 47 171 88 316 90 323
4 9 -90 12 -450 12 l-455 0 -5 -22 c-3 -13 -20 -103 -38 -200 -18 -98 -34
-177 -35 -175 -1 1 -5 54 -9 117 -4 63 -9 126 -10 140 -2 14 -4 51 -4 83 l-1
57 -600 0 c-510 0 -600 -2 -600 -14z"/>
</g>
</svg>
