<?xml version="1.0" standalone="no"?>
<!DOCTYPE svg PUBLIC "-//W3C//DTD SVG 20010904//EN"
 "http://www.w3.org/TR/2001/REC-SVG-20010904/DTD/svg10.dtd">
<svg version="1.0" xmlns="http://www.w3.org/2000/svg"
 width="565.000000pt" height="158.000000pt" viewBox="0 0 565.000000 158.000000"
 preserveAspectRatio="xMidYMid meet">
<metadata>
Created by potrace 1.12, written by Peter Selinger 2001-2015
</metadata>
<g transform="translate(0.000000,158.000000) scale(0.100000,-0.100000)"
fill="#000000" stroke="none">
<path d="M5327 1556 c-62 -17 -116 -62 -147 -121 -20 -40 -24 -62 -24 -134 1
-138 37 -233 181 -472 38 -63 81 -140 96 -172 74 -159 91 -349 40 -452 -47
-93 -125 -126 -230 -99 -31 8 -56 13 -57 12 -1 -2 -9 -20 -18 -40 l-17 -37 47
-18 c30 -12 73 -18 122 -18 67 0 82 4 140 36 123 67 174 170 172 344 -2 177
-42 284 -209 566 -134 226 -168 345 -125 441 11 26 32 54 46 63 30 20 112 23
144 6 18 -9 23 -7 41 23 12 18 21 38 21 44 0 30 -150 49 -223 28z"/>
<path d="M10 1512 l0 -48 90 2 90 2 0 -729 0 -729 65 0 65 0 0 728 0 728 88 0
87 -1 3 48 3 47 -245 0 -246 0 0 -48z"/>
<path d="M778 1103 l-3 -458 -27 1 c-27 0 -28 -2 -28 -48 0 -47 1 -48 30 -48
l30 0 0 -270 0 -270 65 0 65 0 0 270 0 270 115 0 115 0 0 -270 0 -270 65 0 65
0 0 775 0 776 -62 -3 -63 -3 -5 -454 -5 -455 -110 1 -110 2 -3 455 -2 456 -65
0 -65 0 -2 -457z"/>
<path d="M1630 1101 l0 -458 -22 1 c-20 1 -23 -4 -26 -46 -3 -46 -2 -48 22
-48 l26 0 0 -270 0 -270 198 2 197 3 -1 28 c-3 68 9 62 -134 59 l-130 -2 0
225 0 225 100 0 c55 0 100 3 101 8 13 90 7 95 -104 92 -40 -1 -78 -2 -84 -1
-10 1 -13 89 -13 405 l0 405 46 7 c26 4 76 4 113 1 36 -4 75 -4 87 -1 20 5 22
18 15 82 -1 9 -47 12 -196 12 l-195 0 0 -459z"/>
<path d="M2506 1552 c-7 -11 -236 -1489 -236 -1525 0 -15 7 -18 52 -15 l53 3
20 145 20 145 111 3 111 3 6 -38 c3 -21 13 -89 22 -150 l17 -113 64 0 c62 0
64 1 59 22 -3 13 -11 68 -19 123 -17 115 -203 1324 -211 1373 -5 27 -10 32
-35 32 -16 0 -31 -4 -34 -8z m69 -803 c25 -172 45 -321 45 -331 0 -16 -10 -18
-95 -18 -52 0 -95 3 -95 8 0 4 6 48 14 97 8 50 29 197 47 328 17 130 34 236
36 233 2 -2 24 -145 48 -317z"/>
<path d="M2980 1509 l0 -50 45 7 c25 3 65 3 90 0 l45 -7 0 -725 0 -724 60 0
c41 0 60 4 60 13 0 6 0 333 0 725 l0 712 28 1 c15 1 43 1 62 1 19 -1 49 1 66
3 31 5 33 11 25 83 -1 9 -56 12 -241 12 l-240 0 0 -51z"/>
<path d="M3750 786 l0 -776 65 0 65 0 0 273 1 272 35 -55 c84 -129 130 -260
142 -403 l7 -82 59 -3 59 -3 -6 83 c-11 148 -82 343 -169 465 l-31 42 63 67
c109 117 160 258 160 444 0 175 -42 294 -128 370 -57 51 -117 71 -229 77 l-93
6 0 -777z m221 651 c62 -41 99 -161 99 -322 0 -178 -39 -309 -116 -394 -79
-89 -74 -113 -74 343 l0 404 33 -8 c18 -4 44 -14 58 -23z"/>
<path d="M4510 1101 l0 -458 -22 1 c-20 1 -23 -4 -26 -46 -3 -46 -2 -48 22
-48 l26 0 0 -270 0 -270 198 2 197 3 -1 28 c-3 67 8 62 -131 62 l-128 0 -3
222 -2 223 100 0 100 0 0 49 0 50 -97 -1 -98 -1 -3 410 -2 411 112 -3 c62 -1
122 0 134 2 20 4 22 17 15 81 -1 9 -47 12 -196 12 l-195 0 0 -459z"/>
</g>
</svg>
